<svg id="color_line" height="512" viewBox="0 0 74 74" width="512" xmlns="http://www.w3.org/2000/svg" data-name="color line"><path d="m43.083 41.927v7.251a2.7 2.7 0 0 1 -2.7 2.7h-32.57a2.7 2.7 0 0 1 -2.7-2.7v-7.261a2.694 2.694 0 0 1 2.687-2.694h32.58a2.7 2.7 0 0 1 2.703 2.704z" fill="#9297ab"/><path d="m41.855 35.212a8.984 8.984 0 0 1 -4.185-16.937 5.457 5.457 0 0 1 -.407-2.074 5.558 5.558 0 0 1 5.56-5.554 5.483 5.483 0 0 1 3.239 1.053 8.6 8.6 0 0 1 16.3 3.094 3.893 3.893 0 0 1 .422-.015 10.219 10.219 0 0 1 0 20.438z" fill="#eeefee"/><path d="m42.82 10.65a5.559 5.559 0 0 1 2.21.45 8.828 8.828 0 0 0 -1.72 2.38 5.463 5.463 0 0 0 -3.23-1.04 5.262 5.262 0 0 0 -1.54.22 5.545 5.545 0 0 1 4.28-2.01z" fill="#e1e6e9"/><path d="m73 24.99a10.219 10.219 0 0 1 -6.09 9.35 10.222 10.222 0 0 0 -6.88-17.78 2.954 2.954 0 0 0 -.42.02 8.61 8.61 0 0 0 -11.79-7.3 8.6 8.6 0 0 1 14.54 5.51 2.954 2.954 0 0 1 .42-.02 10.219 10.219 0 0 1 10.22 10.22z" fill="#e1e6e9"/><path d="m28.142 46.052h-18.435a.5.5 0 0 1 0-1h18.435a.5.5 0 1 1 0 1z" fill="#323c6b"/><path d="m43.083 57.176v7.251a2.7 2.7 0 0 1 -2.7 2.7h-32.57a2.7 2.7 0 0 1 -2.7-2.7v-7.261a2.694 2.694 0 0 1 2.687-2.694h32.58a2.7 2.7 0 0 1 2.703 2.704z" fill="#9297ab"/><path d="m43.08 41.93v7.25a2.706 2.706 0 0 1 -2.23 2.66 4.048 4.048 0 0 0 .04-.5v-7.25a2.7 2.7 0 0 0 -2.7-2.7h-32.58a2.316 2.316 0 0 0 -.46.04 2.711 2.711 0 0 1 2.65-2.21h32.58a2.7 2.7 0 0 1 2.7 2.71z" fill="#84879c"/><path d="m43.08 57.18v7.25a2.706 2.706 0 0 1 -2.23 2.66 4.048 4.048 0 0 0 .04-.5v-7.25a2.7 2.7 0 0 0 -2.7-2.7h-32.58a2.316 2.316 0 0 0 -.46.04 2.7 2.7 0 0 1 2.65-2.21h32.58a2.7 2.7 0 0 1 2.7 2.71z" fill="#84879c"/><path d="m28.142 61.3h-18.435a.5.5 0 0 1 0-1h18.435a.5.5 0 0 1 0 1z" fill="#323c6b"/><path d="m8.095 51.881h32.003v2.591h-32.003z" fill="#707583"/><g fill="#323c6b"><path d="m40.1 54.972h-32a.5.5 0 0 1 -.5-.5v-2.591a.5.5 0 0 1 .5-.5h32a.5.5 0 0 1 .5.5v2.591a.5.5 0 0 1 -.5.5zm-31.5-1h31v-1.591h-31z"/><path d="m13.693 26.554a.5.5 0 0 1 -.5-.5v-9.932a.5.5 0 0 1 .5-.5h16.426a.5.5 0 0 1 0 1h-15.926v9.432a.5.5 0 0 1 -.5.5z"/><path d="m25.676 20.391a.5.5 0 0 1 -.324-.882l3.994-3.387-3.994-3.388a.5.5 0 1 1 .648-.762l4.443 3.768a.5.5 0 0 1 0 .763l-4.443 3.769a.5.5 0 0 1 -.324.119z"/><path d="m67.391 56.749h-16.425a.5.5 0 0 1 0-1h15.925v-9.433a.5.5 0 0 1 1 0v9.933a.5.5 0 0 1 -.5.5z"/><path d="m55.41 60.517a.5.5 0 0 1 -.324-.119l-4.443-3.768a.5.5 0 0 1 0-.763l4.443-3.767a.5.5 0 0 1 .647.763l-3.994 3.388 3.994 3.387a.5.5 0 0 1 -.323.881z"/><path d="m55.917 4.575a.5.5 0 0 1 -.093-.009c-.3-.057-.609-.1-.919-.132a.5.5 0 0 1 -.444-.551.494.494 0 0 1 .551-.444c.336.037.668.083 1 .144a.5.5 0 0 1 -.092.992z"/><path d="m64.816 12.375a.5.5 0 0 1 -.475-.345 11.126 11.126 0 0 0 -6.365-6.83.5.5 0 1 1 .381-.925 12.128 12.128 0 0 1 6.934 7.444.5.5 0 0 1 -.32.63.493.493 0 0 1 -.155.026z"/><path d="m2.157 41.047a.481.481 0 0 1 -.118-.014.5.5 0 0 1 -.368-.6 6.292 6.292 0 0 1 6.129-4.825h.33a.5.5 0 1 1 0 1h-.33a5.294 5.294 0 0 0 -5.16 4.057.5.5 0 0 1 -.483.382z"/><path d="m11.281 36.608h-.781a.5.5 0 1 1 0-1h.78a.5.5 0 0 1 0 1z"/></g><circle cx="38.017" cy="45.552" fill="#fe7058" r="1.429"/><path d="m38.017 47.482a1.93 1.93 0 1 1 1.929-1.93 1.932 1.932 0 0 1 -1.929 1.93zm0-2.859a.93.93 0 1 0 .929.929.931.931 0 0 0 -.929-.929z" fill="#323c6b"/><circle cx="32.348" cy="45.552" fill="#fe7058" r="1.429"/><path d="m32.349 47.482a1.93 1.93 0 1 1 1.929-1.93 1.932 1.932 0 0 1 -1.929 1.93zm0-2.859a.93.93 0 1 0 .929.929.931.931 0 0 0 -.929-.929z" fill="#323c6b"/><circle cx="38.017" cy="60.801" fill="#fe7058" r="1.429"/><path d="m38.017 62.73a1.929 1.929 0 1 1 1.929-1.93 1.932 1.932 0 0 1 -1.929 1.93zm0-2.858a.929.929 0 1 0 .929.929.931.931 0 0 0 -.929-.929z" fill="#323c6b"/><circle cx="32.348" cy="60.801" fill="#fe7058" r="1.429"/><path d="m32.349 62.73a1.929 1.929 0 1 1 1.929-1.93 1.932 1.932 0 0 1 -1.929 1.93zm0-2.858a.929.929 0 1 0 .929.929.931.931 0 0 0 -.929-.929z" fill="#323c6b"/><path d="m40.38 67.63h-32.567a3.207 3.207 0 0 1 -3.2-3.2v-7.264a3.2 3.2 0 0 1 3.187-3.194h32.58a3.207 3.207 0 0 1 3.2 3.2v7.251a3.207 3.207 0 0 1 -3.2 3.207zm-32.58-12.658a2.2 2.2 0 0 0 -2.194 2.194v7.261a2.206 2.206 0 0 0 2.2 2.2h32.574a2.205 2.205 0 0 0 2.2-2.2v-7.251a2.206 2.206 0 0 0 -2.2-2.2z" fill="#323c6b"/><path d="m40.38 52.381h-32.567a3.207 3.207 0 0 1 -3.2-3.2v-7.264a3.2 3.2 0 0 1 3.187-3.193h32.58a3.207 3.207 0 0 1 3.2 3.2v7.251a3.207 3.207 0 0 1 -3.2 3.206zm-32.58-12.657a2.2 2.2 0 0 0 -2.194 2.193v7.261a2.206 2.206 0 0 0 2.2 2.2h32.574a2.205 2.205 0 0 0 2.2-2.2v-7.251a2.205 2.205 0 0 0 -2.2-2.2z" fill="#323c6b"/><path d="m62.781 35.712h-20.926a9.484 9.484 0 0 1 -4.8-17.666 5.928 5.928 0 0 1 -.291-1.845 6.064 6.064 0 0 1 6.06-6.054 5.964 5.964 0 0 1 3.053.829 9.1 9.1 0 0 1 16.933 3.3 10.719 10.719 0 0 1 -.028 21.438zm-19.958-24.565a5.063 5.063 0 0 0 -5.06 5.054 4.942 4.942 0 0 0 .37 1.884.5.5 0 0 1 -.229.632 8.485 8.485 0 0 0 3.951 16h20.926a9.719 9.719 0 0 0 0-19.438 2.981 2.981 0 0 0 -.369.012.5.5 0 0 1 -.552-.46 8.1 8.1 0 0 0 -15.348-2.911.5.5 0 0 1 -.743.185 4.978 4.978 0 0 0 -2.946-.958z" fill="#323c6b"/><path d="m12.78 64.4h-.42a.579.579 0 1 1 0-1.158h.42a.579.579 0 0 1 0 1.158z" fill="#fff"/><path d="m21.484 64.4h-6.769a.579.579 0 1 1 0-1.158h6.769a.579.579 0 0 1 0 1.158z" fill="#fff"/></svg>