<svg id="color_line" height="512" viewBox="0 0 74 74" width="512" xmlns="http://www.w3.org/2000/svg" data-name="color line"><path d="m70.315 19.439v45.47a4.665 4.665 0 0 1 -4.66 4.66h-56.9a4.656 4.656 0 0 1 -4.65-4.66v-45.47z" fill="#eeefee"/><path d="m10.872 45.433h52.667v16.32h-52.667z" fill="#89c5cd"/><path d="m10.872 26.826h52.667v13.424h-52.667z" fill="#89c5cd"/><path d="m60.585 45.429h2.95v16.32h-2.95z" fill="#6eaaad"/><path d="m63.535 26.829v13.42h-2.95v-10.97h-49.71v-2.45z" fill="#6eaaad"/><path d="m70.315 8.569v10.87h-66.21v-10.87a4.656 4.656 0 0 1 4.65-4.66h56.9a4.665 4.665 0 0 1 4.66 4.66z" fill="#bbbbcd"/><path d="m70.315 19.439v45.47a4.665 4.665 0 0 1 -4.66 4.66h-3.63a4.665 4.665 0 0 0 4.66-4.66v-45.47z" fill="#e1e6e9"/><path d="m70.315 8.569v10.87h-3.63v-7.7a4.665 4.665 0 0 0 -4.66-4.66h-56.9a4.251 4.251 0 0 0 -.8.07 4.647 4.647 0 0 1 4.43-3.24h56.9a4.665 4.665 0 0 1 4.66 4.66z" fill="#9297ab"/><path d="m56.564 72.989h-.985a.5.5 0 0 1 0-1h.985a.5.5 0 0 1 0 1z" fill="#323c6b"/><path d="m53.082 72.989h-10.674a.5.5 0 0 1 0-1h10.674a.5.5 0 0 1 0 1z" fill="#323c6b"/><path d="m1.911 5.838a.494.494 0 0 1 -.211-.048.5.5 0 0 1 -.238-.666 8.116 8.116 0 0 1 7.293-4.635h.9a.5.5 0 0 1 0 1h-.9a7.109 7.109 0 0 0 -6.392 4.063.5.5 0 0 1 -.452.286z" fill="#323c6b"/><path d="m12.929 1.489h-.862a.5.5 0 0 1 0-1h.862a.5.5 0 0 1 0 1z" fill="#323c6b"/><path d="m64.738 11.867h-30.971a.5.5 0 0 1 0-1h30.971a.5.5 0 0 1 0 1z" fill="#323c6b"/><circle cx="26.628" cy="11.367" fill="#27ccbc" r="1.973"/><path d="m26.628 13.839a2.473 2.473 0 1 1 2.472-2.472 2.476 2.476 0 0 1 -2.472 2.472zm0-3.945a1.473 1.473 0 1 0 1.472 1.473 1.475 1.475 0 0 0 -1.472-1.473z" fill="#323c6b"/><circle cx="19.141" cy="11.367" fill="#fcd462" r="1.973"/><path d="m19.141 13.839a2.473 2.473 0 1 1 2.472-2.472 2.475 2.475 0 0 1 -2.472 2.472zm0-3.945a1.473 1.473 0 1 0 1.472 1.473 1.475 1.475 0 0 0 -1.472-1.473z" fill="#323c6b"/><circle cx="11.654" cy="11.367" fill="#fe7058" r="1.973"/><g fill="#323c6b"><path d="m11.654 13.839a2.473 2.473 0 1 1 2.472-2.472 2.476 2.476 0 0 1 -2.472 2.472zm0-3.945a1.473 1.473 0 1 0 1.472 1.473 1.475 1.475 0 0 0 -1.472-1.473z"/><path d="m58.063 36.486h-6.463a.5.5 0 0 1 0-1h6.46a.5.5 0 0 1 0 1z"/><path d="m47.7 36.486h-6.321a.5.5 0 0 1 0-1h6.321a.5.5 0 0 1 0 1z"/><path d="m37.137 36.486h-20.789a.5.5 0 0 1 0-1h20.789a.5.5 0 0 1 0 1z"/><path d="m58.063 31.68h-15.123a.5.5 0 0 1 0-1h15.123a.5.5 0 0 1 0 1z"/><path d="m38 31.68h-8.841a.5.5 0 0 1 0-1h8.841a.5.5 0 0 1 0 1z"/><path d="m24.916 31.68h-8.568a.5.5 0 0 1 0-1h8.568a.5.5 0 1 1 0 1z"/><path d="m31.4 56.654a.5.5 0 0 1 -.354-.147l-2.56-2.56a.5.5 0 0 1 0-.707l2.56-2.561a.5.5 0 1 1 .707.707l-2.207 2.207 2.21 2.207a.5.5 0 0 1 -.353.854z"/><path d="m43.007 56.654a.5.5 0 0 1 -.353-.854l2.207-2.207-2.207-2.207a.5.5 0 1 1 .707-.707l2.56 2.561a.5.5 0 0 1 0 .707l-2.56 2.56a.5.5 0 0 1 -.354.147z"/><path d="m34.989 58.986a.5.5 0 0 1 -.455-.7l4.4-9.785a.5.5 0 0 1 .912.41l-4.4 9.785a.5.5 0 0 1 -.457.29z"/><path d="m65.655 70.069h-56.9a5.162 5.162 0 0 1 -5.155-5.16v-45.47a.5.5 0 0 1 .5-.5h66.215a.5.5 0 0 1 .5.5v45.47a5.166 5.166 0 0 1 -5.16 5.16zm-61.055-50.13v44.97a4.16 4.16 0 0 0 4.151 4.16h56.9a4.164 4.164 0 0 0 4.16-4.16v-44.97z"/><path d="m70.315 19.939h-66.215a.5.5 0 0 1 -.5-.5v-10.87a5.162 5.162 0 0 1 5.151-5.16h56.9a5.166 5.166 0 0 1 5.16 5.16v10.87a.5.5 0 0 1 -.496.5zm-65.711-1h65.211v-10.37a4.164 4.164 0 0 0 -4.16-4.16h-56.9a4.16 4.16 0 0 0 -4.155 4.16z"/><path d="m63.539 62.253h-52.667a.5.5 0 0 1 -.5-.5v-16.32a.5.5 0 0 1 .5-.5h52.667a.5.5 0 0 1 .5.5v16.32a.5.5 0 0 1 -.5.5zm-52.167-1h51.667v-15.32h-51.667z"/><path d="m63.539 40.75h-52.667a.5.5 0 0 1 -.5-.5v-13.424a.5.5 0 0 1 .5-.5h52.667a.5.5 0 0 1 .5.5v13.424a.5.5 0 0 1 -.5.5zm-52.167-1h51.667v-12.424h-51.667z"/></g><path d="m30.013 17h-.439a.606.606 0 1 1 0-1.211h.439a.606.606 0 1 1 0 1.211z" fill="#fff"/><path d="m40.113 17h-7.734a.606.606 0 1 1 0-1.211h7.734a.606.606 0 1 1 0 1.211z" fill="#fff"/></svg>