<svg id="color_line" height="512" viewBox="0 0 74 74" width="512" xmlns="http://www.w3.org/2000/svg" data-name="color line"><path d="m44.125 35.86v10.207a2.062 2.062 0 0 0 2.062 2.061h.588v4.14l5.83-4.14h6.71v18.172a4.75 4.75 0 0 1 -4.75 4.75h-33.54a4.75 4.75 0 0 1 -4.75-4.75v-35.712h5.125l5.83 4.14v-4.14h.588a2.062 2.062 0 0 0 2.062-2.061v-10.207a2.062 2.062 0 0 0 -2.062-2.062h-11.543v-8.458a4.75 4.75 0 0 1 4.75-4.75h33.54a4.75 4.75 0 0 1 4.75 4.75v26h-13.128a2.062 2.062 0 0 0 -2.062 2.06z" fill="#9297ab"/><path d="m59.32 7.794v26h-3.01v-23.1a4.748 4.748 0 0 0 -4.75-4.75h-33.54a4.7 4.7 0 0 0 -1.46.23 4.739 4.739 0 0 1 4.46-3.13h33.55a4.754 4.754 0 0 1 4.75 4.75z" fill="#84879c"/><path d="m56.31 48.124h3.01v18.17a4.747 4.747 0 0 1 -3.3 4.52 4.565 4.565 0 0 0 .29-1.62z" fill="#84879c"/><path d="m44.125 35.86v10.207a2.062 2.062 0 0 0 2.062 2.061h.588v4.14l5.83-4.14h2.11v11.01h-33.84v-28.55h.52l5.83 4.14v-4.14h.588a2.062 2.062 0 0 0 2.062-2.061v-10.207a2.062 2.062 0 0 0 -2.062-2.062h-6.938v-5.94h11.13l.83 3.22h9.92l.83-3.22h11.13v23.482h-8.528a2.062 2.062 0 0 0 -2.062 2.06z" fill="#89c5cd"/><path d="m54.715 59.639h-33.84a.5.5 0 0 1 -.5-.5v-28.551a.5.5 0 0 1 .5-.5h.52a.5.5 0 0 1 .29.093l5.04 3.579v-3.172a.5.5 0 0 1 .5-.5h.588a1.563 1.563 0 0 0 1.562-1.561v-10.207a1.564 1.564 0 0 0 -1.562-1.562h-6.938a.5.5 0 0 1 -.5-.5v-5.94a.5.5 0 0 1 .5-.5h11.13a.5.5 0 0 1 .484.375l.734 2.846h9.144l.734-2.846a.5.5 0 0 1 .484-.375h11.13a.5.5 0 0 1 .5.5v23.482a.5.5 0 0 1 -.5.5h-8.528a1.564 1.564 0 0 0 -1.562 1.562v10.205a1.563 1.563 0 0 0 1.562 1.561h.588a.5.5 0 0 1 .5.5v3.172l5.04-3.579a.5.5 0 0 1 .29-.093h2.11a.5.5 0 0 1 .5.5v11.011a.5.5 0 0 1 -.5.5zm-33.34-1h32.84v-10.011h-1.45l-5.7 4.048a.5.5 0 0 1 -.519.037.5.5 0 0 1 -.27-.444v-3.641h-.088a2.564 2.564 0 0 1 -2.562-2.561v-10.207a2.565 2.565 0 0 1 2.561-2.56h8.028v-22.482h-10.242l-.734 2.846a.5.5 0 0 1 -.484.375h-9.92a.5.5 0 0 1 -.484-.375l-.734-2.846h-10.242v4.94h6.438a2.565 2.565 0 0 1 2.562 2.562v10.207a2.564 2.564 0 0 1 -2.562 2.561h-.088v3.641a.5.5 0 0 1 -.789.407l-5.561-3.948z" fill="#323c6b"/><path d="m33.719 7.607h-.419a.5.5 0 0 1 0-1h.421a.5.5 0 0 1 0 1z" fill="#323c6b"/><path d="m38.007 7.607h-.421a.5.5 0 0 1 0-1h.421a.5.5 0 0 1 0 1z" fill="#323c6b"/><path d="m42.3 7.607h-.421a.5.5 0 0 1 0-1h.421a.5.5 0 0 1 0 1z" fill="#323c6b"/><circle cx="37.797" cy="64.846" fill="#707583" r="2.297"/><path d="m37.8 67.643a2.8 2.8 0 1 1 2.8-2.8 2.8 2.8 0 0 1 -2.8 2.8zm0-4.595a1.8 1.8 0 1 0 1.8 1.8 1.8 1.8 0 0 0 -1.8-1.8z" fill="#323c6b"/><path d="m29.875 18.32v10.207a2.062 2.062 0 0 1 -2.062 2.061h-.588v4.14l-5.83-4.14h-9.038a2.062 2.062 0 0 1 -2.057-2.061v-10.207a2.062 2.062 0 0 1 2.062-2.062h15.451a2.062 2.062 0 0 1 2.062 2.062z" fill="#fcd462"/><path d="m63.705 35.86v10.207a2.062 2.062 0 0 1 -2.062 2.061h-9.038l-5.83 4.14v-4.14h-.588a2.062 2.062 0 0 1 -2.062-2.061v-10.207a2.062 2.062 0 0 1 2.062-2.06h15.456a2.062 2.062 0 0 1 2.062 2.06z" fill="#eeefee"/><path d="m29.88 18.324v10.2a2.066 2.066 0 0 1 -2.07 2.06h-.43v-10.1a2.074 2.074 0 0 0 -2.07-2.07h-15.01v-.09a2.066 2.066 0 0 1 2.06-2.07h15.45a2.074 2.074 0 0 1 2.07 2.07z" fill="#f7be56"/><path d="m63.7 35.864v10.2a2.057 2.057 0 0 1 -2.06 2.06h-.44v-10.1a2.057 2.057 0 0 0 -2.06-2.06h-15.01v-.1a2.066 2.066 0 0 1 2.06-2.07h15.45a2.066 2.066 0 0 1 2.06 2.07z" fill="#e1e6e9"/><g fill="#323c6b"><path d="m16.222 26.059a.5.5 0 0 1 -.354-.147l-2.135-2.135a.5.5 0 0 1 0-.707l2.135-2.135a.5.5 0 0 1 .707.707l-1.781 1.781 1.781 1.782a.5.5 0 0 1 -.353.854z"/><path d="m23.948 26.059a.5.5 0 0 1 -.353-.854l1.781-1.782-1.776-1.781a.5.5 0 0 1 .707-.707l2.135 2.135a.5.5 0 0 1 0 .707l-2.142 2.135a.5.5 0 0 1 -.352.147z"/><path d="m18.544 26.988a.5.5 0 0 1 -.456-.7l2.755-6.13a.5.5 0 1 1 .912.41l-2.755 6.125a.5.5 0 0 1 -.456.295z"/><path d="m59.587 38.892h-.563a.5.5 0 0 1 0-1h.563a.5.5 0 0 1 0 1z"/><path d="m55.712 38.892h-7.469a.5.5 0 0 1 0-1h7.469a.5.5 0 0 1 0 1z"/><path d="m59.587 44.09h-5.355a.5.5 0 0 1 0-1h5.355a.5.5 0 0 1 0 1z"/><path d="m50.92 44.09h-2.677a.5.5 0 1 1 0-1h2.677a.5.5 0 0 1 0 1z"/><path d="m13.275 11.73a.5.5 0 0 1 -.5-.5v-.525a.5.5 0 0 1 1 0v.525a.5.5 0 0 1 -.5.5z"/><path d="m13.275 9.048a.5.5 0 0 1 -.5-.5v-.748a8.215 8.215 0 0 1 3.801-6.94.5.5 0 1 1 .54.842 7.217 7.217 0 0 0 -3.341 6.1v.75a.5.5 0 0 1 -.5.496z"/><path d="m62.315 54.007a.5.5 0 0 1 -.5-.5v-.75a.5.5 0 0 1 1 0v.75a.5.5 0 0 1 -.5.5z"/><path d="m62.315 65.346a.5.5 0 0 1 -.5-.5v-9.032a.5.5 0 1 1 1 0v9.032a.5.5 0 0 1 -.5.5z"/><path d="m54.565 71.548h-33.54a5.256 5.256 0 0 1 -5.25-5.25v-35.71a.5.5 0 0 1 .5-.5h5.125a.5.5 0 0 1 .29.093l5.04 3.579v-3.172a.5.5 0 0 1 .5-.5h.588a1.563 1.563 0 0 0 1.562-1.561v-10.207a1.564 1.564 0 0 0 -1.562-1.562h-11.543a.5.5 0 0 1 -.5-.5v-8.458a5.256 5.256 0 0 1 5.25-5.25h33.54a5.256 5.256 0 0 1 5.25 5.25v26a.5.5 0 0 1 -.5.5h-13.128a1.564 1.564 0 0 0 -1.562 1.562v10.205a1.563 1.563 0 0 0 1.562 1.561h.588a.5.5 0 0 1 .5.5v3.172l5.04-3.579a.5.5 0 0 1 .29-.093h6.71a.5.5 0 0 1 .5.5v18.172a5.256 5.256 0 0 1 -5.25 5.248zm-37.79-40.46v35.212a4.255 4.255 0 0 0 4.25 4.25h33.54a4.255 4.255 0 0 0 4.25-4.25v-17.672h-6.05l-5.7 4.048a.5.5 0 0 1 -.519.037.5.5 0 0 1 -.27-.444v-3.641h-.088a2.564 2.564 0 0 1 -2.562-2.561v-10.207a2.565 2.565 0 0 1 2.561-2.56h12.628v-25.5a4.255 4.255 0 0 0 -4.25-4.25h-33.54a4.255 4.255 0 0 0 -4.25 4.25v7.96h11.038a2.565 2.565 0 0 1 2.562 2.562v10.205a2.564 2.564 0 0 1 -2.562 2.561h-.088v3.641a.5.5 0 0 1 -.789.407l-5.7-4.048z"/><path d="m27.225 35.229a.5.5 0 0 1 -.289-.093l-5.7-4.048h-8.88a2.564 2.564 0 0 1 -2.556-2.561v-10.207a2.565 2.565 0 0 1 2.561-2.562h15.452a2.565 2.565 0 0 1 2.562 2.562v10.207a2.564 2.564 0 0 1 -2.562 2.561h-.088v3.641a.5.5 0 0 1 -.27.444.507.507 0 0 1 -.23.056zm-14.869-18.471a1.564 1.564 0 0 0 -1.556 1.562v10.207a1.563 1.563 0 0 0 1.561 1.561h9.039a.5.5 0 0 1 .29.093l5.04 3.579v-3.172a.5.5 0 0 1 .5-.5h.588a1.563 1.563 0 0 0 1.562-1.561v-10.207a1.564 1.564 0 0 0 -1.562-1.562z"/><path d="m46.775 52.769a.507.507 0 0 1 -.23-.056.5.5 0 0 1 -.27-.444v-3.641h-.088a2.564 2.564 0 0 1 -2.562-2.561v-10.207a2.565 2.565 0 0 1 2.562-2.56h15.457a2.565 2.565 0 0 1 2.561 2.562v10.205a2.564 2.564 0 0 1 -2.561 2.561h-8.879l-5.7 4.048a.5.5 0 0 1 -.29.093zm-.588-18.469a1.564 1.564 0 0 0 -1.562 1.562v10.205a1.563 1.563 0 0 0 1.562 1.561h.588a.5.5 0 0 1 .5.5v3.172l5.04-3.579a.5.5 0 0 1 .29-.093h9.039a1.563 1.563 0 0 0 1.561-1.561v-10.207a1.564 1.564 0 0 0 -1.561-1.56z"/></g><path d="m36.886 54.264h.282a.775.775 0 0 1 0 1.55h-.282a.775.775 0 1 1 0-1.55z" fill="#fff"/><path d="m24.724 54.264h9.134a.775.775 0 0 1 0 1.55h-9.134a.775.775 0 1 1 0-1.55z" fill="#fff"/></svg>